<?xml version="1.0" encoding="UTF-8" standalone="no"?><svg xmlns="http://www.w3.org/2000/svg" xmlns:xlink="http://www.w3.org/1999/xlink" contentScriptType="application/ecmascript" contentStyleType="text/css" height="1162px" preserveAspectRatio="none" style="width:628px;height:1162px;" version="1.1" viewBox="0 0 628 1162" width="628px" zoomAndPan="magnify"><defs><filter height="300%" id="f1xgszddruttdk" width="300%" x="-1" y="-1"><feGaussianBlur result="blurOut" stdDeviation="2.0"/><feColorMatrix in="blurOut" result="blurOut2" type="matrix" values="0 0 0 0 0 0 0 0 0 0 0 0 0 0 0 0 0 0 .4 0"/><feOffset dx="4.0" dy="4.0" in="blurOut2" result="blurOut3"/><feBlend in="SourceGraphic" in2="blurOut3" mode="normal"/></filter></defs><g><text fill="#000000" font-family="sans-serif" font-size="14" font-weight="bold" lengthAdjust="spacingAndGlyphs" textLength="180" x="225.25" y="24.5332">エントランスシーケンス図</text><rect fill="#FFFFFF" filter="url(#f1xgszddruttdk)" height="929.6016" style="stroke: #A80036; stroke-width: 1.0;" width="10" x="42" y="135.2188"/><rect fill="#FFFFFF" filter="url(#f1xgszddruttdk)" height="929.6016" style="stroke: #A80036; stroke-width: 1.0;" width="10" x="113" y="135.2188"/><rect fill="#FFFFFF" filter="url(#f1xgszddruttdk)" height="14.3516" style="stroke: #A80036; stroke-width: 1.0;" width="10" x="118" y="433.1953"/><rect fill="#FFFFFF" filter="url(#f1xgszddruttdk)" height="14.3516" style="stroke: #A80036; stroke-width: 1.0;" width="10" x="118" y="584.6016"/><rect fill="#FFFFFF" filter="url(#f1xgszddruttdk)" height="14.3516" style="stroke: #A80036; stroke-width: 1.0;" width="10" x="118" y="736.0078"/><rect fill="#FFFFFF" filter="url(#f1xgszddruttdk)" height="14.3516" style="stroke: #A80036; stroke-width: 1.0;" width="10" x="118" y="976.1172"/><rect fill="#FFFFFF" filter="url(#f1xgszddruttdk)" height="888.6016" style="stroke: #A80036; stroke-width: 1.0;" width="10" x="306.5" y="175.2188"/><rect fill="#FFFFFF" filter="url(#f1xgszddruttdk)" height="58.7031" style="stroke: #A80036; stroke-width: 1.0;" width="10" x="311.5" y="258.4375"/><rect fill="#FFFFFF" filter="url(#f1xgszddruttdk)" height="58.7031" style="stroke: #A80036; stroke-width: 1.0;" width="10" x="311.5" y="402.8438"/><rect fill="#FFFFFF" filter="url(#f1xgszddruttdk)" height="58.7031" style="stroke: #A80036; stroke-width: 1.0;" width="10" x="311.5" y="554.25"/><rect fill="#FFFFFF" filter="url(#f1xgszddruttdk)" height="58.7031" style="stroke: #A80036; stroke-width: 1.0;" width="10" x="311.5" y="705.6563"/><rect fill="#FFFFFF" filter="url(#f1xgszddruttdk)" height="58.7031" style="stroke: #A80036; stroke-width: 1.0;" width="10" x="311.5" y="857.0625"/><rect fill="#FFFFFF" filter="url(#f1xgszddruttdk)" height="103.0547" style="stroke: #A80036; stroke-width: 1.0;" width="10" x="311.5" y="945.7656"/><rect fill="#FFFFFF" filter="url(#f1xgszddruttdk)" height="841.9922" style="stroke: #A80036; stroke-width: 1.0;" width="10" x="522.5" y="221.8281"/><rect fill="#FFFFFF" filter="url(#f1xgszddruttdk)" height="14.3516" style="stroke: #A80036; stroke-width: 1.0;" width="10" x="527.5" y="288.7891"/><rect fill="#FFFFFF" filter="url(#f1xgszddruttdk)" height="89.0547" style="stroke: #A80036; stroke-width: 1.0;" width="10" x="527.5" y="372.4922"/><rect fill="#FFFFFF" filter="url(#f1xgszddruttdk)" height="89.0547" style="stroke: #A80036; stroke-width: 1.0;" width="10" x="527.5" y="523.8984"/><rect fill="#FFFFFF" filter="url(#f1xgszddruttdk)" height="89.0547" style="stroke: #A80036; stroke-width: 1.0;" width="10" x="527.5" y="675.3047"/><rect fill="#FFFFFF" filter="url(#f1xgszddruttdk)" height="89.0547" style="stroke: #A80036; stroke-width: 1.0;" width="10" x="527.5" y="826.7109"/><rect fill="#FFFFFF" filter="url(#f1xgszddruttdk)" height="14.3516" style="stroke: #A80036; stroke-width: 1.0;" width="10" x="532.5" y="887.4141"/><rect fill="#FFFFFF" filter="url(#f1xgszddruttdk)" height="14.3516" style="stroke: #A80036; stroke-width: 1.0;" width="10" x="527.5" y="1020.4688"/><rect fill="#FEFECE" filter="url(#f1xgszddruttdk)" height="31.6094" style="stroke: #A80036; stroke-width: 1.5;" width="189" x="215" y="143.2188"/><text fill="#000000" font-family="sans-serif" font-size="14" lengthAdjust="spacingAndGlyphs" textLength="175" x="222" y="164.752">MultiPlayEntrancePresenter</text><rect fill="#FEFECE" filter="url(#f1xgszddruttdk)" height="31.6094" style="stroke: #A80036; stroke-width: 1.5;" width="156" x="447.5" y="189.8281"/><text fill="#000000" font-family="sans-serif" font-size="14" lengthAdjust="spacingAndGlyphs" textLength="142" x="454.5" y="211.3613">MultiPlayEntranceView</text><rect fill="#FFFFFF" filter="url(#f1xgszddruttdk)" height="137.4063" style="stroke: #000000; stroke-width: 2.0;" width="604.5" x="13" y="332.1406"/><rect fill="#FFFFFF" filter="url(#f1xgszddruttdk)" height="137.4063" style="stroke: #000000; stroke-width: 2.0;" width="604.5" x="13" y="483.5469"/><rect fill="#FFFFFF" filter="url(#f1xgszddruttdk)" height="137.4063" style="stroke: #000000; stroke-width: 2.0;" width="604.5" x="13" y="634.9531"/><rect fill="#FFFFFF" filter="url(#f1xgszddruttdk)" height="270.4609" style="stroke: #000000; stroke-width: 2.0;" width="604.5" x="13" y="786.3594"/><line style="stroke: #A80036; stroke-width: 1.0; stroke-dasharray: 5.0,5.0;" x1="47" x2="47" y1="119.2188" y2="1073.8203"/><line style="stroke: #A80036; stroke-width: 1.0; stroke-dasharray: 5.0,5.0;" x1="118" x2="118" y1="119.2188" y2="1073.8203"/><line style="stroke: #A80036; stroke-width: 1.0; stroke-dasharray: 5.0,5.0;" x1="311" x2="311" y1="176.5234" y2="1073.8203"/><line style="stroke: #A80036; stroke-width: 1.0; stroke-dasharray: 5.0,5.0;" x1="527.5" x2="527.5" y1="223.1328" y2="1073.8203"/><text fill="#000000" font-family="sans-serif" font-size="14" lengthAdjust="spacingAndGlyphs" textLength="42" x="23" y="116.1426">ユーザ</text><ellipse cx="47" cy="44.6094" fill="#FEFECE" filter="url(#f1xgszddruttdk)" rx="8" ry="8" style="stroke: #A80036; stroke-width: 2.0;"/><path d="M47,52.6094 L47,79.6094 M34,60.6094 L60,60.6094 M47,79.6094 L34,94.6094 M47,79.6094 L60,94.6094 " fill="#FEFECE" filter="url(#f1xgszddruttdk)" style="stroke: #A80036; stroke-width: 2.0;"/><text fill="#000000" font-family="sans-serif" font-size="14" lengthAdjust="spacingAndGlyphs" textLength="42" x="23" y="1087.3535">ユーザ</text><ellipse cx="47" cy="1100.4297" fill="#FEFECE" filter="url(#f1xgszddruttdk)" rx="8" ry="8" style="stroke: #A80036; stroke-width: 2.0;"/><path d="M47,1108.4297 L47,1135.4297 M34,1116.4297 L60,1116.4297 M47,1135.4297 L34,1150.4297 M47,1135.4297 L60,1150.4297 " fill="#FEFECE" filter="url(#f1xgszddruttdk)" style="stroke: #A80036; stroke-width: 2.0;"/><rect fill="#FEFECE" filter="url(#f1xgszddruttdk)" height="31.6094" style="stroke: #A80036; stroke-width: 1.5;" width="70" x="81" y="82.6094"/><text fill="#000000" font-family="sans-serif" font-size="14" lengthAdjust="spacingAndGlyphs" textLength="56" x="88" y="104.1426">Manager</text><rect fill="#FEFECE" filter="url(#f1xgszddruttdk)" height="31.6094" style="stroke: #A80036; stroke-width: 1.5;" width="70" x="81" y="1072.8203"/><text fill="#000000" font-family="sans-serif" font-size="14" lengthAdjust="spacingAndGlyphs" textLength="56" x="88" y="1094.3535">Manager</text><rect fill="#FEFECE" filter="url(#f1xgszddruttdk)" height="31.6094" style="stroke: #A80036; stroke-width: 1.5;" width="189" x="215" y="1072.8203"/><text fill="#000000" font-family="sans-serif" font-size="14" lengthAdjust="spacingAndGlyphs" textLength="175" x="222" y="1094.3535">MultiPlayEntrancePresenter</text><rect fill="#FEFECE" filter="url(#f1xgszddruttdk)" height="31.6094" style="stroke: #A80036; stroke-width: 1.5;" width="156" x="447.5" y="1072.8203"/><text fill="#000000" font-family="sans-serif" font-size="14" lengthAdjust="spacingAndGlyphs" textLength="142" x="454.5" y="1094.3535">MultiPlayEntranceView</text><rect fill="#FFFFFF" filter="url(#f1xgszddruttdk)" height="929.6016" style="stroke: #A80036; stroke-width: 1.0;" width="10" x="42" y="135.2188"/><rect fill="#FFFFFF" filter="url(#f1xgszddruttdk)" height="929.6016" style="stroke: #A80036; stroke-width: 1.0;" width="10" x="113" y="135.2188"/><rect fill="#FFFFFF" filter="url(#f1xgszddruttdk)" height="14.3516" style="stroke: #A80036; stroke-width: 1.0;" width="10" x="118" y="433.1953"/><rect fill="#FFFFFF" filter="url(#f1xgszddruttdk)" height="14.3516" style="stroke: #A80036; stroke-width: 1.0;" width="10" x="118" y="584.6016"/><rect fill="#FFFFFF" filter="url(#f1xgszddruttdk)" height="14.3516" style="stroke: #A80036; stroke-width: 1.0;" width="10" x="118" y="736.0078"/><rect fill="#FFFFFF" filter="url(#f1xgszddruttdk)" height="14.3516" style="stroke: #A80036; stroke-width: 1.0;" width="10" x="118" y="976.1172"/><rect fill="#FFFFFF" filter="url(#f1xgszddruttdk)" height="888.6016" style="stroke: #A80036; stroke-width: 1.0;" width="10" x="306.5" y="175.2188"/><rect fill="#FFFFFF" filter="url(#f1xgszddruttdk)" height="58.7031" style="stroke: #A80036; stroke-width: 1.0;" width="10" x="311.5" y="258.4375"/><rect fill="#FFFFFF" filter="url(#f1xgszddruttdk)" height="58.7031" style="stroke: #A80036; stroke-width: 1.0;" width="10" x="311.5" y="402.8438"/><rect fill="#FFFFFF" filter="url(#f1xgszddruttdk)" height="58.7031" style="stroke: #A80036; stroke-width: 1.0;" width="10" x="311.5" y="554.25"/><rect fill="#FFFFFF" filter="url(#f1xgszddruttdk)" height="58.7031" style="stroke: #A80036; stroke-width: 1.0;" width="10" x="311.5" y="705.6563"/><rect fill="#FFFFFF" filter="url(#f1xgszddruttdk)" height="58.7031" style="stroke: #A80036; stroke-width: 1.0;" width="10" x="311.5" y="857.0625"/><rect fill="#FFFFFF" filter="url(#f1xgszddruttdk)" height="103.0547" style="stroke: #A80036; stroke-width: 1.0;" width="10" x="311.5" y="945.7656"/><rect fill="#FFFFFF" filter="url(#f1xgszddruttdk)" height="841.9922" style="stroke: #A80036; stroke-width: 1.0;" width="10" x="522.5" y="221.8281"/><rect fill="#FFFFFF" filter="url(#f1xgszddruttdk)" height="14.3516" style="stroke: #A80036; stroke-width: 1.0;" width="10" x="527.5" y="288.7891"/><rect fill="#FFFFFF" filter="url(#f1xgszddruttdk)" height="89.0547" style="stroke: #A80036; stroke-width: 1.0;" width="10" x="527.5" y="372.4922"/><rect fill="#FFFFFF" filter="url(#f1xgszddruttdk)" height="89.0547" style="stroke: #A80036; stroke-width: 1.0;" width="10" x="527.5" y="523.8984"/><rect fill="#FFFFFF" filter="url(#f1xgszddruttdk)" height="89.0547" style="stroke: #A80036; stroke-width: 1.0;" width="10" x="527.5" y="675.3047"/><rect fill="#FFFFFF" filter="url(#f1xgszddruttdk)" height="89.0547" style="stroke: #A80036; stroke-width: 1.0;" width="10" x="527.5" y="826.7109"/><rect fill="#FFFFFF" filter="url(#f1xgszddruttdk)" height="14.3516" style="stroke: #A80036; stroke-width: 1.0;" width="10" x="532.5" y="887.4141"/><rect fill="#FFFFFF" filter="url(#f1xgszddruttdk)" height="14.3516" style="stroke: #A80036; stroke-width: 1.0;" width="10" x="527.5" y="1020.4688"/><polygon fill="#A80036" points="101,131.2188,111,135.2188,101,139.2188,105,135.2188" style="stroke: #A80036; stroke-width: 1.0;"/><line style="stroke: #A80036; stroke-width: 1.0;" x1="52" x2="107" y1="135.2188" y2="135.2188"/><polygon fill="#A80036" points="203,161.2188,213,165.2188,203,169.2188,207,165.2188" style="stroke: #A80036; stroke-width: 1.0;"/><line style="stroke: #A80036; stroke-width: 1.0;" x1="123" x2="209" y1="165.2188" y2="165.2188"/><text fill="#000000" font-family="sans-serif" font-size="13" lengthAdjust="spacingAndGlyphs" textLength="68" x="130" y="160.7139">Instantiate()</text><rect fill="#FEFECE" filter="url(#f1xgszddruttdk)" height="31.6094" style="stroke: #A80036; stroke-width: 1.5;" width="189" x="215" y="143.2188"/><text fill="#000000" font-family="sans-serif" font-size="14" lengthAdjust="spacingAndGlyphs" textLength="175" x="222" y="164.752">MultiPlayEntrancePresenter</text><polygon fill="#A80036" points="435.5,207.8281,445.5,211.8281,435.5,215.8281,439.5,211.8281" style="stroke: #A80036; stroke-width: 1.0;"/><line style="stroke: #A80036; stroke-width: 1.0;" x1="316.5" x2="441.5" y1="211.8281" y2="211.8281"/><text fill="#000000" font-family="sans-serif" font-size="13" lengthAdjust="spacingAndGlyphs" textLength="107" x="323.5" y="207.3232">(Child Component)</text><rect fill="#FEFECE" filter="url(#f1xgszddruttdk)" height="31.6094" style="stroke: #A80036; stroke-width: 1.5;" width="156" x="447.5" y="189.8281"/><text fill="#000000" font-family="sans-serif" font-size="14" lengthAdjust="spacingAndGlyphs" textLength="142" x="454.5" y="211.3613">MultiPlayEntranceView</text><polygon fill="#A80036" points="299.5,254.4375,309.5,258.4375,299.5,262.4375,303.5,258.4375" style="stroke: #A80036; stroke-width: 1.0;"/><line style="stroke: #A80036; stroke-width: 1.0;" x1="123" x2="305.5" y1="258.4375" y2="258.4375"/><text fill="#000000" font-family="sans-serif" font-size="13" lengthAdjust="spacingAndGlyphs" textLength="62" x="130" y="253.9326">Initialized()</text><polygon fill="#A80036" points="515.5,284.7891,525.5,288.7891,515.5,292.7891,519.5,288.7891" style="stroke: #A80036; stroke-width: 1.0;"/><line style="stroke: #A80036; stroke-width: 1.0;" x1="321.5" x2="521.5" y1="288.7891" y2="288.7891"/><text fill="#000000" font-family="sans-serif" font-size="13" lengthAdjust="spacingAndGlyphs" textLength="62" x="328.5" y="284.2842">Initialized()</text><polygon fill="#A80036" points="332.5,299.1406,322.5,303.1406,332.5,307.1406,328.5,303.1406" style="stroke: #A80036; stroke-width: 1.0;"/><line style="stroke: #A80036; stroke-width: 1.0; stroke-dasharray: 2.0,2.0;" x1="326.5" x2="521.5" y1="303.1406" y2="303.1406"/><polygon fill="#A80036" points="134,313.1406,124,317.1406,134,321.1406,130,317.1406" style="stroke: #A80036; stroke-width: 1.0;"/><line style="stroke: #A80036; stroke-width: 1.0; stroke-dasharray: 2.0,2.0;" x1="128" x2="305.5" y1="317.1406" y2="317.1406"/><rect fill="none" height="137.4063" style="stroke: #000000; stroke-width: 2.0;" width="604.5" x="13" y="332.1406"/><polygon fill="#EEEEEE" points="13,332.1406,78,332.1406,78,340.1406,68,350.1406,13,350.1406,13,332.1406" style="stroke: #000000; stroke-width: 2.0;"/><text fill="#000000" font-family="sans-serif" font-size="13" font-weight="bold" lengthAdjust="spacingAndGlyphs" textLength="20" x="28" y="346.6357">opt</text><text fill="#000000" font-family="sans-serif" font-size="11" font-weight="bold" lengthAdjust="spacingAndGlyphs" textLength="140" x="93" y="345.5596">[部屋を作るボタン押下時]</text><polygon fill="#A80036" points="515.5,368.4922,525.5,372.4922,515.5,376.4922,519.5,372.4922" style="stroke: #A80036; stroke-width: 1.0;"/><line style="stroke: #A80036; stroke-width: 1.0;" x1="52" x2="521.5" y1="372.4922" y2="372.4922"/><text fill="#000000" font-family="sans-serif" font-size="13" lengthAdjust="spacingAndGlyphs" textLength="65" x="59" y="367.9873">ボタン押下</text><polygon fill="#A80036" points="332.5,398.8438,322.5,402.8438,332.5,406.8438,328.5,402.8438" style="stroke: #A80036; stroke-width: 1.0;"/><line style="stroke: #A80036; stroke-width: 1.0;" x1="326.5" x2="526.5" y1="402.8438" y2="402.8438"/><text fill="#000000" font-family="sans-serif" font-size="13" lengthAdjust="spacingAndGlyphs" textLength="140" x="338.5" y="398.3389">OnClickedCreateRoom()</text><polygon fill="#A80036" points="139,429.1953,129,433.1953,139,437.1953,135,433.1953" style="stroke: #A80036; stroke-width: 1.0;"/><line style="stroke: #A80036; stroke-width: 1.0;" x1="133" x2="310.5" y1="433.1953" y2="433.1953"/><text fill="#000000" font-family="sans-serif" font-size="13" lengthAdjust="spacingAndGlyphs" textLength="80" x="145" y="428.6904">CreateRoom()</text><polygon fill="#A80036" points="299.5,443.5469,309.5,447.5469,299.5,451.5469,303.5,447.5469" style="stroke: #A80036; stroke-width: 1.0;"/><line style="stroke: #A80036; stroke-width: 1.0; stroke-dasharray: 2.0,2.0;" x1="123" x2="305.5" y1="447.5469" y2="447.5469"/><polygon fill="#A80036" points="510.5,457.5469,520.5,461.5469,510.5,465.5469,514.5,461.5469" style="stroke: #A80036; stroke-width: 1.0;"/><line style="stroke: #A80036; stroke-width: 1.0; stroke-dasharray: 2.0,2.0;" x1="316.5" x2="516.5" y1="461.5469" y2="461.5469"/><rect fill="none" height="137.4063" style="stroke: #000000; stroke-width: 2.0;" width="604.5" x="13" y="483.5469"/><polygon fill="#EEEEEE" points="13,483.5469,78,483.5469,78,491.5469,68,501.5469,13,501.5469,13,483.5469" style="stroke: #000000; stroke-width: 2.0;"/><text fill="#000000" font-family="sans-serif" font-size="13" font-weight="bold" lengthAdjust="spacingAndGlyphs" textLength="20" x="28" y="498.042">opt</text><text fill="#000000" font-family="sans-serif" font-size="11" font-weight="bold" lengthAdjust="spacingAndGlyphs" textLength="140" x="93" y="496.9658">[部屋を探すボタン押下時]</text><polygon fill="#A80036" points="515.5,519.8984,525.5,523.8984,515.5,527.8984,519.5,523.8984" style="stroke: #A80036; stroke-width: 1.0;"/><line style="stroke: #A80036; stroke-width: 1.0;" x1="52" x2="521.5" y1="523.8984" y2="523.8984"/><text fill="#000000" font-family="sans-serif" font-size="13" lengthAdjust="spacingAndGlyphs" textLength="65" x="59" y="519.3936">ボタン押下</text><polygon fill="#A80036" points="332.5,550.25,322.5,554.25,332.5,558.25,328.5,554.25" style="stroke: #A80036; stroke-width: 1.0;"/><line style="stroke: #A80036; stroke-width: 1.0;" x1="326.5" x2="526.5" y1="554.25" y2="554.25"/><text fill="#000000" font-family="sans-serif" font-size="13" lengthAdjust="spacingAndGlyphs" textLength="143" x="338.5" y="549.7451">OnClickedSearchRoom()</text><polygon fill="#A80036" points="139,580.6016,129,584.6016,139,588.6016,135,584.6016" style="stroke: #A80036; stroke-width: 1.0;"/><line style="stroke: #A80036; stroke-width: 1.0;" x1="133" x2="310.5" y1="584.6016" y2="584.6016"/><text fill="#000000" font-family="sans-serif" font-size="13" lengthAdjust="spacingAndGlyphs" textLength="83" x="145" y="580.0967">SearchRoom()</text><polygon fill="#A80036" points="299.5,594.9531,309.5,598.9531,299.5,602.9531,303.5,598.9531" style="stroke: #A80036; stroke-width: 1.0;"/><line style="stroke: #A80036; stroke-width: 1.0; stroke-dasharray: 2.0,2.0;" x1="123" x2="305.5" y1="598.9531" y2="598.9531"/><polygon fill="#A80036" points="510.5,608.9531,520.5,612.9531,510.5,616.9531,514.5,612.9531" style="stroke: #A80036; stroke-width: 1.0;"/><line style="stroke: #A80036; stroke-width: 1.0; stroke-dasharray: 2.0,2.0;" x1="316.5" x2="516.5" y1="612.9531" y2="612.9531"/><rect fill="none" height="137.4063" style="stroke: #000000; stroke-width: 2.0;" width="604.5" x="13" y="634.9531"/><polygon fill="#EEEEEE" points="13,634.9531,78,634.9531,78,642.9531,68,652.9531,13,652.9531,13,634.9531" style="stroke: #000000; stroke-width: 2.0;"/><text fill="#000000" font-family="sans-serif" font-size="13" font-weight="bold" lengthAdjust="spacingAndGlyphs" textLength="20" x="28" y="649.4482">opt</text><text fill="#000000" font-family="sans-serif" font-size="11" font-weight="bold" lengthAdjust="spacingAndGlyphs" textLength="104" x="93" y="648.3721">[散歩ボタン押下時]</text><polygon fill="#A80036" points="515.5,671.3047,525.5,675.3047,515.5,679.3047,519.5,675.3047" style="stroke: #A80036; stroke-width: 1.0;"/><line style="stroke: #A80036; stroke-width: 1.0;" x1="52" x2="521.5" y1="675.3047" y2="675.3047"/><text fill="#000000" font-family="sans-serif" font-size="13" lengthAdjust="spacingAndGlyphs" textLength="65" x="59" y="670.7998">ボタン押下</text><polygon fill="#A80036" points="332.5,701.6563,322.5,705.6563,332.5,709.6563,328.5,705.6563" style="stroke: #A80036; stroke-width: 1.0;"/><line style="stroke: #A80036; stroke-width: 1.0;" x1="326.5" x2="526.5" y1="705.6563" y2="705.6563"/><text fill="#000000" font-family="sans-serif" font-size="13" lengthAdjust="spacingAndGlyphs" textLength="115" x="338.5" y="701.1514">OnClickedWalking()</text><polygon fill="#A80036" points="139,732.0078,129,736.0078,139,740.0078,135,736.0078" style="stroke: #A80036; stroke-width: 1.0;"/><line style="stroke: #A80036; stroke-width: 1.0;" x1="133" x2="310.5" y1="736.0078" y2="736.0078"/><text fill="#000000" font-family="sans-serif" font-size="13" lengthAdjust="spacingAndGlyphs" textLength="83" x="145" y="731.5029">StartWalking()</text><polygon fill="#A80036" points="299.5,746.3594,309.5,750.3594,299.5,754.3594,303.5,750.3594" style="stroke: #A80036; stroke-width: 1.0;"/><line style="stroke: #A80036; stroke-width: 1.0; stroke-dasharray: 2.0,2.0;" x1="123" x2="305.5" y1="750.3594" y2="750.3594"/><polygon fill="#A80036" points="510.5,760.3594,520.5,764.3594,510.5,768.3594,514.5,764.3594" style="stroke: #A80036; stroke-width: 1.0;"/><line style="stroke: #A80036; stroke-width: 1.0; stroke-dasharray: 2.0,2.0;" x1="316.5" x2="516.5" y1="764.3594" y2="764.3594"/><rect fill="none" height="270.4609" style="stroke: #000000; stroke-width: 2.0;" width="604.5" x="13" y="786.3594"/><polygon fill="#EEEEEE" points="13,786.3594,78,786.3594,78,794.3594,68,804.3594,13,804.3594,13,786.3594" style="stroke: #000000; stroke-width: 2.0;"/><text fill="#000000" font-family="sans-serif" font-size="13" font-weight="bold" lengthAdjust="spacingAndGlyphs" textLength="20" x="28" y="800.8545">opt</text><text fill="#000000" font-family="sans-serif" font-size="11" font-weight="bold" lengthAdjust="spacingAndGlyphs" textLength="104" x="93" y="799.7783">[戻るボタン押下時]</text><polygon fill="#A80036" points="515.5,822.7109,525.5,826.7109,515.5,830.7109,519.5,826.7109" style="stroke: #A80036; stroke-width: 1.0;"/><line style="stroke: #A80036; stroke-width: 1.0;" x1="52" x2="521.5" y1="826.7109" y2="826.7109"/><text fill="#000000" font-family="sans-serif" font-size="13" lengthAdjust="spacingAndGlyphs" textLength="65" x="59" y="822.2061">ボタン押下</text><polygon fill="#A80036" points="332.5,853.0625,322.5,857.0625,332.5,861.0625,328.5,857.0625" style="stroke: #A80036; stroke-width: 1.0;"/><line style="stroke: #A80036; stroke-width: 1.0;" x1="326.5" x2="526.5" y1="857.0625" y2="857.0625"/><text fill="#000000" font-family="sans-serif" font-size="13" lengthAdjust="spacingAndGlyphs" textLength="98" x="338.5" y="852.5576">OnClickedBack()</text><polygon fill="#A80036" points="520.5,883.4141,530.5,887.4141,520.5,891.4141,524.5,887.4141" style="stroke: #A80036; stroke-width: 1.0;"/><line style="stroke: #A80036; stroke-width: 1.0;" x1="321.5" x2="526.5" y1="887.4141" y2="887.4141"/><text fill="#000000" font-family="sans-serif" font-size="13" lengthAdjust="spacingAndGlyphs" textLength="87" x="328.5" y="882.9092">CloseWindow()</text><polygon fill="#A80036" points="332.5,897.7656,322.5,901.7656,332.5,905.7656,328.5,901.7656" style="stroke: #A80036; stroke-width: 1.0;"/><line style="stroke: #A80036; stroke-width: 1.0; stroke-dasharray: 2.0,2.0;" x1="326.5" x2="526.5" y1="901.7656" y2="901.7656"/><polygon fill="#A80036" points="510.5,911.7656,520.5,915.7656,510.5,919.7656,514.5,915.7656" style="stroke: #A80036; stroke-width: 1.0;"/><line style="stroke: #A80036; stroke-width: 1.0; stroke-dasharray: 2.0,2.0;" x1="316.5" x2="516.5" y1="915.7656" y2="915.7656"/><polygon fill="#A80036" points="332.5,941.7656,322.5,945.7656,332.5,949.7656,328.5,945.7656" style="stroke: #A80036; stroke-width: 1.0;"/><line style="stroke: #A80036; stroke-width: 1.0;" x1="326.5" x2="521.5" y1="945.7656" y2="945.7656"/><text fill="#000000" font-family="sans-serif" font-size="13" lengthAdjust="spacingAndGlyphs" textLength="149" x="338.5" y="941.2607">OnEndClosingAnimation()</text><polygon fill="#A80036" points="139,972.1172,129,976.1172,139,980.1172,135,976.1172" style="stroke: #A80036; stroke-width: 1.0;"/><line style="stroke: #A80036; stroke-width: 1.0;" x1="133" x2="310.5" y1="976.1172" y2="976.1172"/><text fill="#000000" font-family="sans-serif" font-size="13" lengthAdjust="spacingAndGlyphs" textLength="100" x="145" y="971.6123">OnEndEntrance()</text><polygon fill="#A80036" points="299.5,986.4688,309.5,990.4688,299.5,994.4688,303.5,990.4688" style="stroke: #A80036; stroke-width: 1.0;"/><line style="stroke: #A80036; stroke-width: 1.0; stroke-dasharray: 2.0,2.0;" x1="123" x2="305.5" y1="990.4688" y2="990.4688"/><polygon fill="#A80036" points="515.5,1016.4688,525.5,1020.4688,515.5,1024.4688,519.5,1020.4688" style="stroke: #A80036; stroke-width: 1.0;"/><line style="stroke: #A80036; stroke-width: 1.0;" x1="321.5" x2="521.5" y1="1020.4688" y2="1020.4688"/><text fill="#000000" font-family="sans-serif" font-size="13" lengthAdjust="spacingAndGlyphs" textLength="90" x="328.5" y="1015.9639">SetActive(false)</text><polygon fill="#A80036" points="332.5,1030.8203,322.5,1034.8203,332.5,1038.8203,328.5,1034.8203" style="stroke: #A80036; stroke-width: 1.0;"/><line style="stroke: #A80036; stroke-width: 1.0; stroke-dasharray: 2.0,2.0;" x1="326.5" x2="521.5" y1="1034.8203" y2="1034.8203"/><polygon fill="#A80036" points="510.5,1044.8203,520.5,1048.8203,510.5,1052.8203,514.5,1048.8203" style="stroke: #A80036; stroke-width: 1.0;"/><line style="stroke: #A80036; stroke-width: 1.0; stroke-dasharray: 2.0,2.0;" x1="316.5" x2="516.5" y1="1048.8203" y2="1048.8203"/><!--
@startuml

title エントランスシーケンス図

actor ユーザ

ユーザ -> Manager
activate ユーザ
activate Manager

create MultiPlayEntrancePresenter
Manager -> MultiPlayEntrancePresenter : Instantiate()
activate MultiPlayEntrancePresenter

create MultiPlayEntranceView
MultiPlayEntrancePresenter -> MultiPlayEntranceView : (Child Component)
activate MultiPlayEntranceView

Manager -> MultiPlayEntrancePresenter : Initialized()
activate MultiPlayEntrancePresenter

MultiPlayEntrancePresenter -> MultiPlayEntranceView : Initialized()
activate MultiPlayEntranceView
MultiPlayEntrancePresenter <- - MultiPlayEntranceView
deactivate MultiPlayEntranceView

Manager <- - MultiPlayEntrancePresenter
deactivate MultiPlayEntrancePresenter

opt 部屋を作るボタン押下時

    ユーザ -> MultiPlayEntranceView : ボタン押下
    activate MultiPlayEntranceView

    MultiPlayEntrancePresenter <- MultiPlayEntranceView : OnClickedCreateRoom()
    activate MultiPlayEntrancePresenter
    
    Manager <- MultiPlayEntrancePresenter : CreateRoom()
    activate Manager
    Manager - -> MultiPlayEntrancePresenter
    deactivate Manager

    MultiPlayEntrancePresenter - -> MultiPlayEntranceView
    deactivate MultiPlayEntrancePresenter


    deactivate MultiPlayEntranceView

end

opt 部屋を探すボタン押下時

    ユーザ -> MultiPlayEntranceView : ボタン押下
    activate MultiPlayEntranceView

    MultiPlayEntrancePresenter <- MultiPlayEntranceView : OnClickedSearchRoom()
    activate MultiPlayEntrancePresenter
    
    Manager <- MultiPlayEntrancePresenter : SearchRoom()
    activate Manager
    Manager - -> MultiPlayEntrancePresenter
    deactivate Manager

    MultiPlayEntrancePresenter - -> MultiPlayEntranceView
    deactivate MultiPlayEntrancePresenter

    deactivate MultiPlayEntranceView

end

opt 散歩ボタン押下時

    ユーザ -> MultiPlayEntranceView : ボタン押下
    activate MultiPlayEntranceView

    MultiPlayEntrancePresenter <- MultiPlayEntranceView : OnClickedWalking()
    activate MultiPlayEntrancePresenter
    
    Manager <- MultiPlayEntrancePresenter : StartWalking()
    activate Manager
    Manager - -> MultiPlayEntrancePresenter
    deactivate Manager

    MultiPlayEntrancePresenter - -> MultiPlayEntranceView
    deactivate MultiPlayEntrancePresenter

    deactivate MultiPlayEntranceView

end

opt 戻るボタン押下時

    ユーザ -> MultiPlayEntranceView : ボタン押下
    activate MultiPlayEntranceView

    MultiPlayEntrancePresenter <- MultiPlayEntranceView : OnClickedBack()
    activate MultiPlayEntrancePresenter
    
    MultiPlayEntrancePresenter -> MultiPlayEntranceView : CloseWindow()
    activate MultiPlayEntranceView
    MultiPlayEntrancePresenter <- - MultiPlayEntranceView
    deactivate MultiPlayEntranceView

    MultiPlayEntrancePresenter - -> MultiPlayEntranceView
    deactivate MultiPlayEntrancePresenter

    deactivate MultiPlayEntranceView

    MultiPlayEntrancePresenter <- MultiPlayEntranceView : OnEndClosingAnimation()
    activate MultiPlayEntrancePresenter

    Manager <- MultiPlayEntrancePresenter : OnEndEntrance()
    activate Manager
    Manager - -> MultiPlayEntrancePresenter
    deactivate Manager

    MultiPlayEntrancePresenter -> MultiPlayEntranceView : SetActive(false)
    activate MultiPlayEntranceView
    MultiPlayEntrancePresenter <- - MultiPlayEntranceView
    deactivate MultiPlayEntranceView

    MultiPlayEntrancePresenter - -> MultiPlayEntranceView
    deactivate MultiPlayEntrancePresenter

end

deactivate MultiPlayEntrancePresenter
deactivate MultiPlayEntranceView

@enduml

PlantUML version 1.2017.15(Tue Jul 04 01:45:34 JST 2017)
(GPL source distribution)
Java Runtime: Java(TM) SE Runtime Environment
JVM: Java HotSpot(TM) 64-Bit Server VM
Java Version: 1.8.0_101-b13
Operating System: Windows 10
OS Version: 10.0
Default Encoding: MS932
Language: ja
Country: JP
--></g></svg>